name C:\Users\u0101727\Documents\MyRepositories\upper-imu-dc\OpenSim\subject0\MA\ResultsMA\grid_4nodes_9dim\angles_25.mot
datacolumns 10
datarows 33
range 2575.01000000 2575.33000000
endheader 
time	clav_prot	clav_elev	scapula_abduction	scapula_elevation	scapula_upward_rot	scapula_winging	plane_elv	shoulder_elv	axial_rot	
       2575.01000000	        -50.00000000	         20.00000000	        -21.66666667	         10.00000000	         30.00000000	         10.00000000	         30.00000000	        100.00000000	         90.00000000	
       2575.02000000	        -38.33333333	         20.00000000	        -21.66666667	         10.00000000	         30.00000000	         10.00000000	         30.00000000	        100.00000000	         90.00000000	
       2575.03000000	        -26.66666667	         20.00000000	        -21.66666667	         10.00000000	         30.00000000	         10.00000000	         30.00000000	        100.00000000	         90.00000000	
       2575.04000000	        -15.00000000	         20.00000000	        -21.66666667	         10.00000000	         30.00000000	         10.00000000	         30.00000000	        100.00000000	         90.00000000	
       2575.05000000	        -50.00000000	        -10.00000000	         -3.33333333	         10.00000000	         30.00000000	         10.00000000	         30.00000000	        100.00000000	         90.00000000	
       2575.06000000	        -38.33333333	        -10.00000000	         -3.33333333	         10.00000000	         30.00000000	         10.00000000	         30.00000000	        100.00000000	         90.00000000	
       2575.07000000	        -26.66666667	        -10.00000000	         -3.33333333	         10.00000000	         30.00000000	         10.00000000	         30.00000000	        100.00000000	         90.00000000	
       2575.08000000	        -15.00000000	        -10.00000000	         -3.33333333	         10.00000000	         30.00000000	         10.00000000	         30.00000000	        100.00000000	         90.00000000	
       2575.09000000	        -50.00000000	          0.00000000	         -3.33333333	         10.00000000	         30.00000000	         10.00000000	         30.00000000	        100.00000000	         90.00000000	
       2575.10000000	        -38.33333333	          0.00000000	         -3.33333333	         10.00000000	         30.00000000	         10.00000000	         30.00000000	        100.00000000	         90.00000000	
       2575.11000000	        -26.66666667	          0.00000000	         -3.33333333	         10.00000000	         30.00000000	         10.00000000	         30.00000000	        100.00000000	         90.00000000	
       2575.12000000	        -15.00000000	          0.00000000	         -3.33333333	         10.00000000	         30.00000000	         10.00000000	         30.00000000	        100.00000000	         90.00000000	
       2575.13000000	        -50.00000000	         10.00000000	         -3.33333333	         10.00000000	         30.00000000	         10.00000000	         30.00000000	        100.00000000	         90.00000000	
       2575.14000000	        -38.33333333	         10.00000000	         -3.33333333	         10.00000000	         30.00000000	         10.00000000	         30.00000000	        100.00000000	         90.00000000	
       2575.15000000	        -26.66666667	         10.00000000	         -3.33333333	         10.00000000	         30.00000000	         10.00000000	         30.00000000	        100.00000000	         90.00000000	
       2575.16000000	        -15.00000000	         10.00000000	         -3.33333333	         10.00000000	         30.00000000	         10.00000000	         30.00000000	        100.00000000	         90.00000000	
       2575.17000000	        -50.00000000	         20.00000000	         -3.33333333	         10.00000000	         30.00000000	         10.00000000	         30.00000000	        100.00000000	         90.00000000	
       2575.18000000	        -38.33333333	         20.00000000	         -3.33333333	         10.00000000	         30.00000000	         10.00000000	         30.00000000	        100.00000000	         90.00000000	
       2575.19000000	        -26.66666667	         20.00000000	         -3.33333333	         10.00000000	         30.00000000	         10.00000000	         30.00000000	        100.00000000	         90.00000000	
       2575.20000000	        -15.00000000	         20.00000000	         -3.33333333	         10.00000000	         30.00000000	         10.00000000	         30.00000000	        100.00000000	         90.00000000	
       2575.21000000	        -50.00000000	        -10.00000000	         15.00000000	         10.00000000	         30.00000000	         10.00000000	         30.00000000	        100.00000000	         90.00000000	
       2575.22000000	        -38.33333333	        -10.00000000	         15.00000000	         10.00000000	         30.00000000	         10.00000000	         30.00000000	        100.00000000	         90.00000000	
       2575.23000000	        -26.66666667	        -10.00000000	         15.00000000	         10.00000000	         30.00000000	         10.00000000	         30.00000000	        100.00000000	         90.00000000	
       2575.24000000	        -15.00000000	        -10.00000000	         15.00000000	         10.00000000	         30.00000000	         10.00000000	         30.00000000	        100.00000000	         90.00000000	
       2575.25000000	        -50.00000000	          0.00000000	         15.00000000	         10.00000000	         30.00000000	         10.00000000	         30.00000000	        100.00000000	         90.00000000	
       2575.26000000	        -38.33333333	          0.00000000	         15.00000000	         10.00000000	         30.00000000	         10.00000000	         30.00000000	        100.00000000	         90.00000000	
       2575.27000000	        -26.66666667	          0.00000000	         15.00000000	         10.00000000	         30.00000000	         10.00000000	         30.00000000	        100.00000000	         90.00000000	
       2575.28000000	        -15.00000000	          0.00000000	         15.00000000	         10.00000000	         30.00000000	         10.00000000	         30.00000000	        100.00000000	         90.00000000	
       2575.29000000	        -50.00000000	         10.00000000	         15.00000000	         10.00000000	         30.00000000	         10.00000000	         30.00000000	        100.00000000	         90.00000000	
       2575.30000000	        -38.33333333	         10.00000000	         15.00000000	         10.00000000	         30.00000000	         10.00000000	         30.00000000	        100.00000000	         90.00000000	
       2575.31000000	        -26.66666667	         10.00000000	         15.00000000	         10.00000000	         30.00000000	         10.00000000	         30.00000000	        100.00000000	         90.00000000	
       2575.32000000	        -15.00000000	         10.00000000	         15.00000000	         10.00000000	         30.00000000	         10.00000000	         30.00000000	        100.00000000	         90.00000000	
       2575.33000000	        -50.00000000	         20.00000000	         15.00000000	         10.00000000	         30.00000000	         10.00000000	         30.00000000	        100.00000000	         90.00000000	
